<?xml version="1.0" encoding="UTF-8"?>
<svg width="12px" height="13px" viewBox="0 0 12 13" version="1.1" xmlns="http://www.w3.org/2000/svg" xmlns:xlink="http://www.w3.org/1999/xlink">
    <!-- Generator: Sketch 60 (88103) - https://sketch.com -->
    <title>路径 2</title>
    <desc>Created with Sketch.</desc>
    <g id="页面-1" stroke="none" stroke-width="1" fill="none" fill-rule="evenodd">
        <g id="VM-1" transform="translate(-551.000000, -428.000000)" fill="#B0A2F3" fill-rule="nonzero">
            <g id="编组-3" transform="translate(430.000000, 373.000000)">
                <g id="ethereum">
                    <g id="编组" transform="translate(36.000000, 24.000000)">
                        <g id="路径-2" transform="translate(85.000000, 31.263154)">
                            <path d="M5.4775,1.23040039 L9.5134375,5.26633789 L0.72078125,5.26661133 C0.32265625,5.26661133 -3.64153152e-14,5.58926758 -3.64153152e-14,5.98739258 C-3.64153152e-14,6.38551758 0.322382812,6.70817383 0.72078125,6.70817383 L9.5134375,6.70790039 L5.47722656,10.7435645 C5.19585937,11.0249316 5.19585937,11.4812988 5.47722656,11.7629395 C5.75859375,12.0443066 6.21496094,12.0443066 6.49660156,11.7629395 L11.7630078,6.4965332 C11.7963672,6.46317383 11.8264453,6.42598633 11.8526953,6.38661133 C11.8644531,6.36883789 11.8726562,6.34969727 11.8827734,6.33110352 C11.8953516,6.3084082 11.9090234,6.2865332 11.9188672,6.2624707 C11.9289844,6.2384082 11.9347266,6.21297852 11.9418359,6.1880957 C11.9475781,6.16813477 11.9555078,6.1487207 11.9596094,6.12821289 C11.9782031,6.0349707 11.9782031,5.9387207 11.9596094,5.84547852 C11.9557812,5.82606445 11.9483984,5.80801758 11.9429297,5.78887695 C11.9355469,5.76290039 11.9292578,5.73637695 11.9188672,5.71094727 C11.9092969,5.68770508 11.8958984,5.66692383 11.8841406,5.64504883 C11.87375,5.62563477 11.865,5.60567383 11.8526953,5.58708008 C11.8261719,5.54770508 11.7963672,5.51079102 11.7630078,5.4771582 L6.49660156,0.211025391 C6.21523437,-0.0703417969 5.75886719,-0.0703417969 5.47722656,0.211025391 C5.19585937,0.492392578 5.19585937,0.948759766 5.4775,1.23040039 L5.4775,1.23040039 Z" id="路径"></path>
                        </g>
                    </g>
                </g>
            </g>
        </g>
    </g>
</svg>