<?xml version="1.0" encoding="UTF-8"?>
<svg width="31px" height="31px" viewBox="0 0 31 31" version="1.1" xmlns="http://www.w3.org/2000/svg" xmlns:xlink="http://www.w3.org/1999/xlink">
    <!-- Generator: Sketch 60 (88103) - https://sketch.com -->
    <title>bsc-suter-icon-v2</title>
    <desc>Created with Sketch.</desc>
    <g id="页面-1" stroke="none" stroke-width="1" fill="none" fill-rule="evenodd">
        <g id="VM-2-pc" transform="translate(-745.000000, -558.000000)">
            <g id="编组-9" transform="translate(540.000000, 118.000000)">
                <g id="编组-4" transform="translate(0.000000, 108.000000)">
                    <rect id="矩形" stroke="#282828" stroke-width="1.98" fill="#1D1C1E" x="0.99" y="0.99" width="358.02" height="450.02" rx="20"></rect>
                    <g id="编组" transform="translate(30.000000, 310.000000)">
                        <g id="编组-16">
                            <g id="编组-4" transform="translate(0.000000, 23.000000)">
                                <g id="bsc-suter-icon-v2" transform="translate(176.000000, 0.000000)">
                                    <path d="M14.625,0 C22.702907,0 29.25,6.54840921 29.25,14.625 C29.25,22.702907 22.702907,29.25 14.625,29.25 C6.54840921,29.25 0,22.7022489 0,14.625 C0,6.54840921 6.54840921,0 14.625,0 Z" id="路径" stroke="#F3BA2F" stroke-width="0.65"></path>
                                    <path d="M19.7659814,16.6863296 L19.8411941,16.7566456 C20.2529353,17.1800063 20.2529353,17.8665212 19.8411941,18.289882 L13.9161025,24.3824794 C13.5043613,24.8058402 12.8366885,24.8058402 12.4246587,24.3824794 C12.0129175,23.958822 12.0129175,23.272307 12.4246587,22.8489463 L18.3500388,16.7566456 C18.7375599,16.3581883 19.3517887,16.3347497 19.7659814,16.6863296 Z M14.0003551,12.6675206 C14.4120963,13.091178 14.4120963,13.7773962 14.0003551,14.2010537 L10.2499612,18.0572857 C9.86244006,18.455743 9.24821131,18.4791816 8.83401864,18.1276017 L8.7588059,18.0572857 C8.3470647,17.633925 8.3470647,16.9471134 8.7588059,16.5237526 L12.5089113,12.6675206 C12.9209411,12.2441598 13.5886139,12.2441598 14.0003551,12.6675206 Z M20.4165818,11.2900439 L20.4916769,11.3583231 C20.9027744,11.7694205 20.9027744,12.4360494 20.4916769,12.8471468 L16.7471468,16.5916769 C16.3360494,17.0027744 15.6694205,17.0027744 15.2583231,16.5916769 C14.8472256,16.1805795 14.8472256,15.5139506 15.2583231,15.1028532 L19.0028532,11.3583231 C19.3897684,10.9714079 20.0030368,10.9486481 20.4165818,11.2900439 Z M16.6001939,4.84980607 C16.9999354,5.24982762 16.9999354,5.89804181 16.6001939,6.29778323 L10.8475031,12.0501939 C10.4712759,12.4264212 9.8749482,12.4485522 9.47282681,12.116587 L9.39980606,12.0501939 C9.00006465,11.6504525 9.00006465,11.0022383 9.39980606,10.6024969 L15.1522168,4.84980607 C15.5519582,4.45006465 16.2001724,4.45006465 16.6001939,4.84980607 Z" id="形状结合" fill="#F3BA2F" fill-rule="nonzero"></path>
                                </g>
                            </g>
                        </g>
                    </g>
                </g>
            </g>
        </g>
    </g>
</svg>