<?xml version="1.0" encoding="UTF-8"?>
<svg width="23px" height="38px" viewBox="0 0 23 38" version="1.1" xmlns="http://www.w3.org/2000/svg" xmlns:xlink="http://www.w3.org/1999/xlink">
    <!-- Generator: Sketch 60 (88103) - https://sketch.com -->
    <title>形状结合</title>
    <desc>Created with Sketch.</desc>
    <g id="页面-1" stroke="none" stroke-width="1" fill="none" fill-rule="evenodd">
        <g id="手机" transform="translate(-10.000000, -27.000000)" fill="#F3BA2F">
            <path d="M31.5576473,49.8071906 L31.6853164,49.9273568 C32.4691446,50.7306907 32.4691446,52.0333639 31.6853164,52.8366977 L20.4057715,64.3974996 C19.6219434,65.2008335 18.3509005,65.2008335 17.5665231,64.3974996 C16.7826949,63.5936028 16.7826949,62.2909296 17.5665231,61.4875958 L28.8466172,49.9273568 C29.5891913,49.1663037 30.769044,49.1262483 31.5576473,49.8071906 Z M20.5661624,42.1681763 C21.3499906,42.9720731 21.3499906,44.2741833 20.5661624,45.0780801 L13.4265703,52.3953426 C12.6839963,53.1563957 11.5041436,53.1964512 10.7155402,52.5155089 L10.5878711,52.3953426 C9.80404297,51.5920087 9.80404297,50.2887726 10.5878711,49.4854388 L17.726914,42.1681763 C18.5112914,41.3648424 19.7823343,41.3648424 20.5661624,42.1681763 Z M32.2844598,39.4848852 L32.4121289,39.6050515 C33.195957,40.4083853 33.195957,41.7110585 32.4121289,42.5143923 L25.2725368,49.8316548 C24.4887086,50.6349887 23.2176657,50.6349887 22.4338376,49.8316548 C21.6500094,49.028321 21.6500094,47.7256478 22.4338376,46.922314 L29.5734297,39.6050515 C30.3160037,38.8439983 31.4958564,38.8039429 32.2844598,39.4848852 Z M25.433422,27.6025004 C26.2172501,28.4063972 26.2172501,29.7090704 25.433422,30.5124042 L14.1533278,42.0726432 C13.4107538,42.8336963 12.2309011,42.8737517 11.4422978,42.1928094 L11.3146286,42.0726432 C10.5308005,41.2693093 10.5308005,39.9666361 11.3146286,39.1633023 L22.5941735,27.6025004 C23.3780017,26.7991665 24.6490446,26.7991665 25.433422,27.6025004 Z" id="形状结合"></path>
        </g>
    </g>
</svg>