<?xml version="1.0" encoding="UTF-8"?>
<svg width="75px" height="75px" viewBox="0 0 75 75" version="1.1" xmlns="http://www.w3.org/2000/svg" xmlns:xlink="http://www.w3.org/1999/xlink">
    <!-- Generator: Sketch 60 (88103) - https://sketch.com -->
    <title>编组 4</title>
    <desc>Created with Sketch.</desc>
    <g id="页面-1" stroke="none" stroke-width="1" fill="none" fill-rule="evenodd">
        <g id="VM-1" transform="translate(-785.000000, -396.000000)" fill-rule="nonzero" stroke="#F0B90B">
            <g id="编组-3" transform="translate(773.000000, 397.000000)">
                <g id="ethereum">
                    <g id="编组" transform="translate(13.000000, 0.000000)">
                        <g id="编组-4">
                            <path d="M0,36.5 C0.165638343,24.4018733 2.26671585,14.3844254 8.41002168,8.41002168 C14.3844254,2.26671585 24.4018733,0.165638343 36.5,0 C48.5981267,0.165638343 58.6155746,2.26671585 64.5899783,8.41002168 C70.7332842,14.3844254 72.8343617,24.4018733 73,36.5 C72.8343617,48.5981267 70.7332842,58.6155746 64.5899783,64.5899783 C58.6155746,70.7332842 48.5981267,72.8343617 36.5,73 C24.4018733,72.8343617 14.3844254,70.7332842 8.41002168,64.5899783 C2.26671585,58.6155746 0.165638343,48.5981267 0,36.5 Z" id="路径"></path>
                            <g id="chain-icon" transform="translate(16.000000, 12.000000)">
                                <polygon id="路径" points="20.4 0 7.874532 7.352196 12.47952 10.068288 20.4 5.432196 28.32048 10.068288 32.92548 7.352196"></polygon>
                                <polygon id="路径" points="28.32048 13.90824 32.92548 16.62444 32.92548 22.0566 25.005 26.69268 25.005 35.96484 20.4 38.68092 15.795 35.96484 15.795 26.69268 7.874532 22.0566 7.874532 16.62444 12.47952 13.90824 20.4 18.54444"></polygon>
                                <polygon id="路径" points="32.92548 25.8966 32.92548 31.32876 28.32048 34.04484 28.32048 28.61268"></polygon>
                                <polygon id="路径" points="28.27452 37.88484 36.195 33.24876 36.195 23.9766 40.8 21.26052 40.8 35.96484 28.27452 43.31712"></polygon>
                                <polygon id="路径" points="36.195 14.70444 31.59012 11.9883 36.195 9.272196 40.8 11.9883 40.8 17.42052 36.195 20.1366"></polygon>
                                <polygon id="路径" points="15.795 45.28392 15.795 39.85176 20.4 42.56784 25.005 39.85176 25.005 45.28392 20.4 48"></polygon>
                                <polygon id="路径" points="12.47952 34.04484 7.874532 31.32876 7.874532 25.8966 12.47952 28.61268"></polygon>
                                <polygon id="路径" points="20.4 14.70444 15.795 11.9883 20.4 9.272196 25.005 11.9883"></polygon>
                                <polygon id="路径" points="9.209916 11.9883 4.604964 14.70444 4.604964 20.1366 0 17.42052 0 11.9883 4.604964 9.272196"></polygon>
                                <polygon id="路径" points="0 21.26052 4.604964 23.9766 4.604964 33.24876 12.52548 37.88484 12.52548 43.31712 0 35.96484"></polygon>
                            </g>
                        </g>
                    </g>
                </g>
            </g>
        </g>
    </g>
</svg>