<?xml version="1.0" encoding="UTF-8"?>
<svg width="20px" height="20px" viewBox="0 0 20 20" version="1.1" xmlns="http://www.w3.org/2000/svg" xmlns:xlink="http://www.w3.org/1999/xlink">
    <!-- Generator: Sketch 60 (88103) - https://sketch.com -->
    <title>icon-test</title>
    <desc>Created with Sketch.</desc>
    <g id="页面-1" stroke="none" stroke-width="1" fill="none" fill-rule="evenodd">
        <g id="VM-2" transform="translate(-564.000000, -244.000000)">
            <g id="编组-5" transform="translate(150.000000, 124.000000)">
                <rect id="矩形" stroke="#282828" fill="#1D1C1E" x="0.5" y="47.5" width="539" height="267" rx="20"></rect>
                <g id="编组-10" transform="translate(20.000000, 67.000000)">
                    <g id="编组-8" transform="translate(0.000000, 28.000000)">
                        <rect id="矩形" stroke="#979797" fill-opacity="0.1" fill="#D8D8D8" x="0.5" y="0.5" width="499" height="69" rx="10"></rect>
                        <g id="编组-3" transform="translate(394.000000, 25.000000)" fill="#FFFFFF" fill-rule="nonzero">
                            <g id="icon-test">
                                <path d="M0,4.875 L0,19.5 L14.625,19.5 L14.625,4.875 L0,4.875 Z M13,17.875 L1.625,17.875 L1.625,6.5 L13,6.5 L13,17.875 Z" id="形状"></path>
                                <polygon id="路径" points="17.875 0 6.5 0 6.5 3.25 8.125 3.25 8.125 1.625 17.875 1.625 17.875 11.375 16.25 11.375 16.25 13 19.5 13 19.5 0"></polygon>
                            </g>
                        </g>
                    </g>
                </g>
            </g>
        </g>
    </g>
</svg>