<?xml version="1.0" encoding="UTF-8"?>
<svg width="30px" height="30px" viewBox="0 0 30 30" version="1.1" xmlns="http://www.w3.org/2000/svg" xmlns:xlink="http://www.w3.org/1999/xlink">
    <!-- Generator: Sketch 60 (88103) - https://sketch.com -->
    <title>路径</title>
    <desc>Created with Sketch.</desc>
    <g id="页面-1" stroke="none" stroke-width="1" fill="none" fill-rule="evenodd">
        <g id="VM-2-pc" transform="translate(-745.000000, -337.000000)">
            <g id="编组-9" transform="translate(540.000000, 118.000000)">
                <g id="编组-4" transform="translate(0.000000, 108.000000)">
                    <g id="编组-6" transform="translate(20.000000, 78.000000)">
                        <g id="编组-4">
                            <g id="tether-seeklogo.com" transform="translate(185.000000, 33.000000)" fill-rule="nonzero">
                                <path d="M15,0 C23.2839,0 30,6.7161 30,15 C30,23.2839 23.2836,30 15,30 C6.7164,30 0,23.2857 0,15 C0,6.7143 6.7152,0 15,0" id="路径" fill="#B9AAFF"></path>
                                <path d="M20.3159814,17.1363296 L20.3911941,17.2066456 C20.8029353,17.6300063 20.8029353,18.3165212 20.3911941,18.739882 L14.4661025,24.8324794 C14.0543613,25.2558402 13.3866885,25.2558402 12.9746587,24.8324794 C12.5629175,24.408822 12.5629175,23.722307 12.9746587,23.2989463 L18.9000388,17.2066456 C19.2875599,16.8081883 19.9017887,16.7847497 20.3159814,17.1363296 Z M14.5503551,13.1175206 C14.9620963,13.541178 14.9620963,14.2273962 14.5503551,14.6510537 L10.7999611,18.5072857 C10.4124401,18.905743 9.79821131,18.9291816 9.38401864,18.5776017 L9.3088059,18.5072857 C8.8970647,18.083925 8.8970647,17.3971134 9.3088059,16.9737526 L13.0589113,13.1175206 C13.4709411,12.6941598 14.1386139,12.6941598 14.5503551,13.1175206 Z M20.9665818,11.7400439 L21.0416769,11.8083231 C21.4527744,12.2194205 21.4527744,12.8860494 21.0416769,13.2971468 L17.2971468,17.0416769 C16.8860494,17.4527744 16.2194205,17.4527744 15.8083231,17.0416769 C15.3972256,16.6305795 15.3972256,15.9639506 15.8083231,15.5528532 L19.5528532,11.8083231 C19.9397684,11.4214079 20.5530368,11.3986481 20.9665818,11.7400439 Z M17.1501939,5.29980607 C17.5499354,5.69982762 17.5499354,6.34804181 17.1501939,6.74778323 L11.3975031,12.5001939 C11.0212759,12.8764212 10.4249482,12.8985522 10.0228268,12.566587 L9.94980607,12.5001939 C9.55006465,12.1004525 9.55006465,11.4522383 9.94980607,11.0524969 L15.7022168,5.29980607 C16.1019582,4.90006465 16.7501724,4.90006465 17.1501939,5.29980607 Z" id="形状结合" fill="#0B000E"></path>
                            </g>
                        </g>
                    </g>
                </g>
            </g>
        </g>
    </g>
</svg>