<?xml version="1.0" encoding="UTF-8"?>
<svg width="20px" height="20px" viewBox="0 0 20 20" version="1.1" xmlns="http://www.w3.org/2000/svg" xmlns:xlink="http://www.w3.org/1999/xlink">
    <!-- Generator: Sketch 60 (88103) - https://sketch.com -->
    <title>ziyuan156</title>
    <desc>Created with Sketch.</desc>
    <g id="页面-1" stroke="none" stroke-width="1" fill="none" fill-rule="evenodd">
        <g id="Revert" transform="translate(-875.000000, -416.000000)" fill="#F64679" fill-rule="nonzero">
            <g id="编组-4" transform="translate(535.000000, 270.000000)">
                <g id="编组-13" transform="translate(36.000000, 144.000000)">
                    <g id="编组-12">
                        <g id="编组-11">
                            <g id="ziyuan156" transform="translate(304.000000, 2.000000)">
                                <path d="M10.0087778,20.0000053 C5.42479821,20.0076612 1.42367748,16.8949682 0.30373055,12.4498983 C-0.816216379,8.00482841 1.23236627,3.36789687 5.27273615,1.20263969 C9.31310604,-0.96261749 14.3085858,-0.100639018 17.389683,3.29343933 C20.4707801,6.68751767 20.8469473,11.7428439 18.3021074,15.5555486 C18.0978821,15.8381249 17.7104178,15.9156178 17.4132189,15.7333263 C17.1266654,15.5316747 17.0484887,15.1407907 17.2354412,14.8444379 C19.4572723,11.5484714 19.1521486,7.16359678 16.4952383,4.2071199 C13.8383279,1.25064301 9.51083272,0.480571143 5.99711759,2.33899366 C2.48340247,4.19741617 0.684344374,8.20785449 1.63276175,12.0679623 C2.58117913,15.9280702 6.03390847,18.6481595 10.0087778,18.6666584 C11.2357475,18.667225 12.4484405,18.4034642 13.5643318,17.8933254 C13.9006117,17.7411403 14.2965907,17.8903787 14.4487758,18.2266586 C14.6009608,18.5629385 14.4517225,18.9589175 14.1154426,19.1111026 C12.8251237,19.6954055 11.4252277,19.9984133 10.0087778,20.0000053 L10.0087778,20.0000053 Z" id="路径"></path>
                                <path d="M12.7287766,13.4311051 C12.5524085,13.4290571 12.3836394,13.359002 12.2576657,13.2355497 L6.8087792,7.70666324 C6.64046749,7.53676368 6.57558139,7.28997679 6.63856286,7.05926479 C6.70154434,6.82855279 6.88282501,6.64896633 7.11411821,6.58815389 C7.3454114,6.52734145 7.59157817,6.59454189 7.75988988,6.76444145 L13.2087763,12.2933279 C13.4687348,12.55361 13.4687348,12.9752675 13.2087763,13.2355497 C13.0822839,13.3636816 12.9087974,13.4343613 12.7287766,13.4311051 L12.7287766,13.4311051 Z" id="路径"></path>
                                <path d="M7.24433457,13.3866965 C7.06718684,13.3885192 6.89698146,13.3178679 6.77322365,13.1911053 C6.5132652,12.9308231 6.5132652,12.5091656 6.77322365,12.2488834 L12.3021101,6.79999697 C12.5647521,6.53980962 12.988589,6.54179948 13.2487763,6.80444144 C13.5089637,7.0670834 13.5069738,7.49092031 13.2443319,7.75110768 L7.71544547,13.1999941 C7.58807427,13.3201987 7.41947009,13.3870042 7.24433457,13.3866965 Z" id="路径"></path>
                            </g>
                        </g>
                    </g>
                </g>
            </g>
        </g>
    </g>
</svg>