<?xml version="1.0" encoding="UTF-8"?>
<svg width="75px" height="75px" viewBox="0 0 75 75" version="1.1" xmlns="http://www.w3.org/2000/svg" xmlns:xlink="http://www.w3.org/1999/xlink">
    <!-- Generator: Sketch 60 (88103) - https://sketch.com -->
    <title>编组 2</title>
    <desc>Created with Sketch.</desc>
    <g id="页面-1" stroke="none" stroke-width="1" fill="none" fill-rule="evenodd">
        <g id="VM-1" transform="translate(-893.000000, -396.000000)" fill-rule="nonzero" stroke="#B0A2F3">
            <g id="编组-3" transform="translate(773.000000, 397.000000)">
                <g id="ethereum">
                    <g id="编组" transform="translate(13.000000, 0.000000)">
                        <g id="编组-2" transform="translate(108.000000, 0.000000)">
                            <path d="M0,36.5 C0.165638343,24.4018733 2.26671585,14.3844254 8.41002168,8.41002168 C14.3844254,2.26671585 24.4018733,0.165638343 36.5,0 C48.5981267,0.165638343 58.6155746,2.26671585 64.5899783,8.41002168 C70.7332842,14.3844254 72.8343617,24.4018733 73,36.5 C72.8343617,48.5981267 70.7332842,58.6155746 64.5899783,64.5899783 C58.6155746,70.7332842 48.5981267,72.8343617 36.5,73 C24.4018733,72.8343617 14.3844254,70.7332842 8.41002168,64.5899783 C2.26671585,58.6155746 0.165638343,48.5981267 0,36.5 Z" id="路径"></path>
                            <g id="ethereum" transform="translate(18.000000, 6.000000)" stroke-linejoin="round">
                                <polygon id="路径" points="18.2655521 21.9990769 -7.10542736e-15 30.3061695 18.2655521 41.0974922 36.5239243 30.3061695"></polygon>
                                <polygon id="路径" points="-7.10542736e-15 30.3061695 18.2655521 41.0974922 18.2655521 1.42108547e-14"></polygon>
                                <polygon id="路径" points="18.2655521 1.42108547e-14 18.2655521 41.0974922 36.5239243 30.3061695"></polygon>
                                <polygon id="路径" points="-7.10542736e-15 33.7668598 18.2655521 59.4994615 18.2655521 44.5581825"></polygon>
                                <polygon id="路径" points="18.2655521 44.5581825 18.2655521 59.4994615 36.538284 33.7668598"></polygon>
                            </g>
                        </g>
                    </g>
                </g>
            </g>
        </g>
    </g>
</svg>