<?xml version="1.0" encoding="UTF-8"?>
<svg width="20px" height="20px" viewBox="0 0 20 20" version="1.1" xmlns="http://www.w3.org/2000/svg" xmlns:xlink="http://www.w3.org/1999/xlink">
    <!-- Generator: Sketch 60 (88103) - https://sketch.com -->
    <title>icon-test-3</title>
    <desc>Created with Sketch.</desc>
    <g id="页面-1" stroke="none" stroke-width="1" fill="none" fill-rule="evenodd">
        <g id="VM-2" transform="translate(-614.000000, -244.000000)">
            <g id="编组-5" transform="translate(150.000000, 124.000000)">
                <rect id="矩形" stroke="#282828" fill="#1D1C1E" x="0.5" y="47.5" width="539" height="267" rx="20"></rect>
                <g id="编组-10" transform="translate(20.000000, 67.000000)">
                    <g id="编组-8" transform="translate(0.000000, 28.000000)">
                        <rect id="矩形" stroke="#979797" fill-opacity="0.1" fill="#D8D8D8" x="0.5" y="0.5" width="499" height="69" rx="10"></rect>
                        <g id="编组-3" transform="translate(394.000000, 25.000000)" fill="#FFFFFF" fill-rule="nonzero">
                            <g id="icon-test-3" transform="translate(50.000000, 0.000000)">
                                <polygon id="路径" points="17.875 0 13 0 13 1.625 16.726125 1.625 9.9880625 8.3630625 11.1369375 9.5119375 17.875 2.773875 17.875 6.5 19.5 6.5 19.5 0"></polygon>
                                <path d="M16.25,17.875 L1.625,17.875 L1.625,3.25 L10.5625,3.25 L10.5625,1.625 L0.8125,1.625 C0.363768641,1.625 0,1.98876864 0,2.4375 L0,18.6875 C0,19.1362314 0.363768641,19.5 0.8125,19.5 L17.0625,19.5 C17.5112314,19.5 17.875,19.1362314 17.875,18.6875 L17.875,8.9375 L16.25,8.9375 L16.25,17.875 Z" id="路径"></path>
                            </g>
                        </g>
                    </g>
                </g>
            </g>
        </g>
    </g>
</svg>