<?xml version="1.0" encoding="UTF-8"?>
<svg width="23px" height="23px" viewBox="0 0 23 23" version="1.1" xmlns="http://www.w3.org/2000/svg" xmlns:xlink="http://www.w3.org/1999/xlink">
    <!-- Generator: Sketch 60 (88103) - https://sketch.com -->
    <title>link</title>
    <desc>Created with Sketch.</desc>
    <g id="页面-1" stroke="none" stroke-width="1" fill="none" fill-rule="evenodd">
        <g id="VM-2" transform="translate(-708.000000, -240.000000)" fill="#FFFFFF" fill-rule="nonzero">
            <g id="编组-5" transform="translate(150.000000, 124.000000)">
                <g id="link" transform="translate(558.000000, 116.000000)">
                    <path d="M13.3290625,16.0623438 C13.2360937,15.969375 13.0846875,15.969375 12.9917188,16.0623438 L9.52,19.5340625 C7.91296875,21.1410938 5.19828125,21.3110938 3.42390625,19.5340625 C1.646875,17.7570313 1.816875,15.045 3.42390625,13.4379688 L6.895625,9.96625 C6.98859375,9.87328125 6.98859375,9.721875 6.895625,9.62890625 L5.705625,8.43890625 C5.61265625,8.3459375 5.46125,8.3459375 5.36828125,8.43890625 L1.8965625,11.910625 C-0.6321875,14.439375 -0.6321875,18.53 1.8965625,21.0534375 C4.4253125,23.576875 8.5159375,23.5821875 11.039375,21.0534375 L14.5110938,17.584375 C14.6040625,17.4914063 14.6040625,17.34 14.5110938,17.2470313 L13.3290625,16.0623438 L13.3290625,16.0623438 Z M21.0560937,1.8965625 C18.5273437,-0.6321875 14.4367188,-0.6321875 11.9132813,1.8965625 L8.43625,5.36828125 C8.34328125,5.46125 8.34328125,5.61265625 8.43625,5.705625 L9.62359375,6.89296875 C9.7165625,6.9859375 9.86796875,6.9859375 9.9609375,6.89296875 L13.4326563,3.42125 C15.0396875,1.81421875 17.754375,1.64421875 19.52875,3.42125 C21.3057812,5.19828125 21.1357813,7.9103125 19.52875,9.51734375 L16.0570313,12.9917188 C15.9640625,13.0846875 15.9640625,13.2360938 16.0570313,13.3290625 L17.2470312,14.5190625 C17.34,14.6120313 17.4914063,14.6120313 17.584375,14.5190625 L21.0560938,11.0473438 C23.5821875,8.51859375 23.5821875,4.42265625 21.0560938,1.8965625 L21.0560937,1.8965625 Z" id="形状"></path>
                    <path d="M14.4075,7.30203125 C14.3145313,7.2090625 14.163125,7.2090625 14.0701563,7.30203125 L7.30203125,14.0701563 C7.2090625,14.163125 7.2090625,14.3145313 7.30203125,14.4075 L8.4840625,15.5895313 C8.57703125,15.6825 8.7284375,15.6825 8.82140625,15.5895313 L15.586875,8.8240625 C15.6798437,8.73109375 15.6798437,8.5796875 15.586875,8.48671875 L14.4075,7.30203125 L14.4075,7.30203125 Z" id="路径"></path>
                </g>
            </g>
        </g>
    </g>
</svg>