<?xml version="1.0" encoding="UTF-8"?>
<svg width="228px" height="31px" viewBox="0 0 228 31" version="1.1" xmlns="http://www.w3.org/2000/svg" xmlns:xlink="http://www.w3.org/1999/xlink">
    <!-- Generator: Sketch 60 (88103) - https://sketch.com -->
    <title>Elements/logo-decktop</title>
    <desc>Created with Sketch.</desc>
    <g id="组件" stroke="none" stroke-width="1" fill="none" fill-rule="evenodd">
        <g id="logo-bridge-Alpha/decktop/black" transform="translate(0.000000, -13.000000)">
            <g id="Elements/logo-decktop" transform="translate(0.000000, 13.000000)">
                <g id="编组-2" fill="#B9AAFF">
                    <path d="M17.5701254,18.3631121 L17.6869056,18.4692928 C18.3262016,19.1085888 18.3262016,20.1452608 17.6869056,20.7845568 L8.4872256,29.9846848 C7.8479296,30.6239808 6.8112576,30.6239808 6.1715136,29.9846848 C5.5322176,29.3449408 5.5322176,28.3082688 6.1715136,27.6689728 L15.3716416,18.4692928 C15.973332,17.8676024 16.9270232,17.8322089 17.5701254,18.3631121 Z M93.1121408,8.6911552 L93.1121408,10.0597952 C94.4933248,9.2041152 96.2176768,8.6907072 98.0638848,8.6907072 L98.0638848,8.6907072 L98.0638848,12.0547392 C95.3924608,12.0547392 93.1121408,13.6760512 93.1121408,15.5961792 L93.1121408,15.5961792 L93.1121408,23.8613312 L89.7521408,23.8613312 L89.7521408,8.6911552 L93.1121408,8.6911552 Z M46.8203008,9.1715456 L46.8203008,16.8238336 C46.8203008,18.7757696 48.4151808,20.3652736 50.3474048,20.3652736 C52.2796288,20.3652736 53.8745088,18.7757696 53.8745088,16.8238336 L53.8745088,16.8238336 L53.8745088,9.1715456 L57.2345088,9.1715456 L57.2345088,16.8238336 C57.2345088,20.6614016 54.1451008,23.7853056 50.3474048,23.7853056 C46.5497088,23.7853056 43.4603008,20.6614016 43.4603008,16.8238336 L43.4603008,16.8238336 L43.4603008,9.1715456 L46.8203008,9.1715456 Z M79.6878656,8.6905728 C83.9098176,8.6905728 86.9951936,11.6738048 86.9951936,16.2425088 C86.9951936,16.5157888 86.9687616,17.5986048 86.9418816,17.9265408 L86.9418816,17.9265408 L75.6921536,17.9265408 C76.2051136,19.5326208 77.9191616,20.8833408 80.2828096,20.8833408 C81.9072576,20.8833408 83.1791296,20.3627648 84.2077376,19.2960768 L84.2077376,19.2960768 L86.0225856,21.4021248 C84.7224896,22.9625088 82.6921536,23.7827968 80.2017216,23.7827968 C75.3557056,23.7827968 72.2170176,20.5101568 72.2170176,16.1605248 C72.2170176,11.8095488 75.3839296,8.6905728 79.6878656,8.6905728 Z M39.5176768,8.7062528 L39.5176768,12.0662528 L33.6130368,12.0662528 C32.9258048,12.0662528 32.3689408,12.6231168 32.3689408,13.3103488 C32.3689408,13.9971328 32.9249088,14.5539968 33.6116928,14.5544448 L33.6116928,14.5544448 L36.4394688,14.5580288 C38.7507008,14.5580288 40.7035328,16.6300288 40.7035328,19.1589888 C40.7035328,21.8671488 38.9446848,23.7608448 36.4260288,23.7608448 L36.4260288,23.7608448 L29.8695488,23.7608448 L29.8695488,20.4008448 L33.9329088,20.4008448 L36.1016768,20.4003968 C36.7875648,20.4003968 37.3435328,19.8439808 37.3435328,19.1585408 C37.3435328,18.4726528 36.7880128,17.9171328 36.1030208,17.9162368 L36.1030208,17.9162368 L33.2703168,17.9135488 C31.9339328,17.9135488 30.6557888,17.3109888 29.8502848,16.1829248 C29.0120768,15.0087168 28.7831488,13.4779008 29.2396608,12.0895488 C29.8650688,10.1815168 31.7121728,8.7062528 33.8347968,8.7062528 L33.8347968,8.7062528 L39.5176768,8.7062528 Z M65.6559232,6.4529024 L65.6559232,8.6906624 L69.9078912,8.6906624 L69.9078912,12.0555904 L65.6559232,12.0555904 L65.6559232,17.2152064 C65.6559232,19.1671424 67.4335872,20.4004864 69.4164352,20.4004864 L69.4164352,20.4004864 L69.4164352,23.7604864 C65.6187392,23.7604864 62.2726272,21.0532224 62.2726272,17.2152064 L62.2726272,17.2152064 L62.2726272,12.0555904 L59.9914112,12.0555904 L59.9914112,8.6906624 L62.2726272,8.6906624 L62.2726272,6.4529024 L65.6559232,6.4529024 Z M8.6180416,12.2945088 C9.2573376,12.9342528 9.2573376,13.9704768 8.6180416,14.6102208 L2.7949376,20.4333248 C2.19324725,21.0350152 1.23955601,21.0704087 0.596453786,20.5395055 L0.4796736,20.4333248 C-0.1596224,19.7940288 -0.1596224,18.7569088 0.4796736,18.1176128 L6.3023296,12.2945088 C6.9420736,11.6552128 7.9787456,11.6552128 8.6180416,12.2945088 Z M18.162919,10.1485841 L18.2796992,10.2547648 C18.9189952,10.8940608 18.9189952,11.9307328 18.2796992,12.5700288 L12.4565952,18.3931328 C11.8172992,19.0324288 10.7806272,19.0324288 10.1413312,18.3931328 C9.5020352,17.7538368 9.5020352,16.7171648 10.1413312,16.0778688 L15.9644352,10.2547648 C16.5661256,9.65307445 17.5198168,9.6176809 18.162919,10.1485841 Z M79.6878656,11.4793728 C77.9469376,11.4793728 76.0084416,12.4945408 75.6939456,14.5665408 L75.6939456,14.5665408 L83.6540096,14.5665408 C83.3919296,12.5209728 81.4610496,11.4793728 79.6878656,11.4793728 Z M12.5878144,0.7030912 C13.2271104,1.3428352 13.2271104,2.3795072 12.5878144,3.0188032 L3.3876864,12.2184832 C2.78599605,12.8201736 1.83230481,12.8555671 1.18920259,12.3246639 L1.0724224,12.2184832 C0.4331264,11.5791872 0.4331264,10.5425152 1.0724224,9.9032192 L10.2721024,0.7030912 C10.9113984,0.0637952 11.9480704,0.0637952 12.5878144,0.7030912 Z M116.4096,24.1468406 C120.563184,24.1468406 123.930169,20.7797438 123.930169,16.6261875 C123.930169,12.4727438 120.5631,9.10575938 116.409628,9.10575938 C114.844078,9.10575938 113.390409,9.58430625 112.186519,10.4028 C112.186659,8.5371 112.184747,6.85868438 112.184747,5.1648 L108.864,5.1648 L108.864,24 L112.183566,24 C112.183566,23.6592656 112.185591,23.1952313 112.185591,22.8491531 C113.38965,23.6680406 114.843684,24.1468406 116.4096,24.1468406 Z M133.911744,8.8 L133.911744,12.164032 C131.24032,12.164032 128.96,13.785344 128.96,15.705472 L128.96,15.705472 L128.96,23.970624 L125.6,23.970624 L125.6,8.800448 L128.96,8.800448 L128.96,10.169088 C130.341184,9.313408 132.065536,8.8 133.911744,8.8 L133.911744,8.8 Z M116.409628,12.3935719 C118.747322,12.3935719 120.642356,14.2886344 120.642356,16.6263 C120.642356,18.9639375 118.747322,20.859 116.409628,20.859 C114.163847,20.859 112.326862,19.1098781 112.185956,16.8995906 L112.185956,16.35225 C112.327284,14.1423563 114.1641,12.3935719 116.409628,12.3935719 Z M137.7504,6.70079063 L141.069994,6.67502813 L141.070249,5.70014048 C141.070596,4.87765106 141.071175,3.96019781 141.071175,3.33234375 L137.7504,3.33234375 L137.7504,6.70079063 Z M141.069994,24 L141.070343,18.7639638 C141.070691,15.3990794 141.071175,11.8087339 141.071175,9.27507188 L137.7504,9.27507188 L137.7504,24 L141.069994,24 Z M150.8832,24.1468406 C152.449144,24.1468406 153.90315,23.6680406 155.107237,22.849125 C155.107237,23.1977344 155.110978,23.6669438 155.110978,24 L158.430572,24 L158.430572,5.1648 L155.109825,5.1648 L155.109635,5.34283283 C155.10889,6.05303796 155.106216,8.72620469 155.106337,10.4027719 C153.902447,9.58425 152.448778,9.10570313 150.883228,9.10570313 C146.729756,9.10570313 143.362659,12.4727438 143.362659,16.6262438 C143.362659,20.7797438 146.729728,24.1468406 150.8832,24.1468406 Z M150.8832,20.859 C148.545591,20.859 146.6505,18.9639375 146.6505,16.6262719 C146.6505,14.2886344 148.545591,12.3935719 150.8832,12.3935719 C153.128644,12.3935719 154.965347,14.1421031 155.1069,16.3517719 L155.1069,16.9000406 L155.1069,16.9000406 C154.965741,19.1101031 153.128897,20.859 150.8832,20.859 Z M168.005334,29.7722344 C171.984319,29.7722344 175.210678,26.5498406 175.217175,22.5722906 L175.217175,9.2688 L171.897637,9.2688 L171.897609,10.4034188 L171.897609,10.4034188 C170.69355,9.58453125 169.239516,9.10573125 167.6736,9.10573125 C163.520072,9.10573125 160.153031,12.4728 160.153031,16.6263 C160.153031,20.7797719 163.5201,24.1468406 167.6736,24.1468406 C169.226662,24.1468406 170.6697,23.8199438 171.867937,23.0133469 C171.635653,24.9306 170.002912,26.4161625 168.022969,26.4161625 C166.953375,26.4161625 165.985003,25.9825875 165.284044,25.2816 L162.905737,27.6599344 C164.210822,28.9650188 166.013803,29.7722344 168.005334,29.7722344 Z M184.270848,8.8 C188.4928,8.8 191.578176,11.783232 191.578176,16.351936 C191.578176,16.625216 191.551744,17.708032 191.524864,18.035968 L191.524864,18.035968 L180.275136,18.035968 C180.788096,19.642048 182.502144,20.992768 184.865792,20.992768 C186.49024,20.992768 187.762112,20.472192 188.79072,19.405504 L188.79072,19.405504 L190.605568,21.511552 C189.305472,23.071936 187.275136,23.892224 184.784704,23.892224 C179.938688,23.892224 176.8,20.619584 176.8,16.269952 C176.8,11.918976 179.966912,8.8 184.270848,8.8 Z M167.6736,12.3935719 C169.917806,12.3935719 171.753722,14.1402188 171.896991,16.3481719 L171.896878,16.9059469 C171.75285,19.113225 169.917272,20.859 167.6736,20.859 C165.335906,20.859 163.440872,18.9639656 163.440872,16.6263 C163.440872,14.2886344 165.335906,12.3935719 167.6736,12.3935719 Z M184.270848,11.5888 C182.52992,11.5888 180.591424,12.603968 180.276928,14.675968 L180.276928,14.675968 L188.236992,14.675968 C187.974912,12.6304 186.044032,11.5888 184.270848,11.5888 Z" id="形状结合"></path>
                </g>
                <g id="编组" transform="translate(197.600000, 3.200000)">
                    <rect id="矩形" fill="#B9AAFF" x="0" y="0" width="30.4" height="12" rx="4"></rect>
                    <path d="M5.68241549,8.8 L6.113,7.474 L8.215,7.474 L8.64548368,8.8 L9.96366549,8.8 L7.95798368,2.98181818 L6.3727564,2.98181818 L4.36423368,8.8 L5.68241549,8.8 Z M7.903,6.514 L6.426,6.514 L7.14264277,4.31136364 L7.18809731,4.31136364 L7.903,6.514 Z M11.8488695,8.8 L11.8488695,2.98181818 L10.6386422,2.98181818 L10.6386422,8.8 L11.8488695,8.8 Z M14.0261308,10.4363636 L14.0261308,8.10113636 L14.0630626,8.10113636 C14.1179869,8.22234848 14.1975323,8.34214015 14.301699,8.46051136 C14.4058657,8.57888258 14.5398619,8.67689394 14.7036876,8.75454545 C14.8675134,8.83219697 15.0668505,8.87102273 15.301699,8.87102273 C15.6331384,8.87102273 15.9328543,8.78532197 16.2008467,8.61392045 C16.4688391,8.44251894 16.6809604,8.18967803 16.8372104,7.85539773 C16.9934604,7.52111742 17.0715854,7.11060606 17.0715854,6.62386364 C17.0715854,6.12386364 16.9910929,5.70767045 16.8301081,5.37528409 C16.6691232,5.04289773 16.4541611,4.7938447 16.1852217,4.628125 C15.9162823,4.4624053 15.6227217,4.37954545 15.3045399,4.37954545 C15.0602217,4.37954545 14.8561498,4.42073864 14.692324,4.503125 C14.5284982,4.58551136 14.3959225,4.68778409 14.2945967,4.80994318 C14.193271,4.93210227 14.1160929,5.05189394 14.0630626,5.16931818 L14.0630626,5.16931818 L14.0090854,5.16931818 L14.0090854,4.43636364 L12.8159035,4.43636364 L12.8159035,10.4363636 L14.0261308,10.4363636 Z M14.9181763,7.90795455 C14.7231005,7.90795455 14.5573808,7.85445076 14.4210172,7.74744318 C14.2846535,7.64043561 14.1804869,7.49034091 14.1085172,7.29715909 C14.0365475,7.10397727 14.0005626,6.87765152 14.0005626,6.61818182 C14.0005626,6.35871212 14.0365475,6.13333333 14.1085172,5.94204545 C14.1804869,5.75075758 14.2841801,5.6030303 14.4195967,5.49886364 C14.5550134,5.39469697 14.7212066,5.34261364 14.9181763,5.34261364 C15.1170399,5.34261364 15.2846535,5.39659091 15.4210172,5.50454545 C15.5573808,5.6125 15.6606005,5.76212121 15.7306763,5.95340909 C15.800752,6.14469697 15.8357899,6.36628788 15.8357899,6.61818182 C15.8357899,6.8719697 15.8002785,7.09592803 15.7292558,7.29005682 C15.6582331,7.48418561 15.5545399,7.63570076 15.4181763,7.74460227 C15.2818126,7.85350379 15.115146,7.90795455 14.9181763,7.90795455 Z M19.0852142,8.8 L19.0852142,6.27727273 C19.0871082,6.08977273 19.1235665,5.92926136 19.1945892,5.79573864 C19.265612,5.66221591 19.3640968,5.56041667 19.4900438,5.49034091 C19.6159907,5.42026515 19.7613506,5.38522727 19.9261233,5.38522727 C20.1723354,5.38522727 20.3640968,5.46003788 20.5014074,5.60965909 C20.638718,5.7592803 20.7064264,5.96856061 20.7045324,6.2375 L20.7045324,6.2375 L20.7045324,8.8 L21.9147597,8.8 L21.9147597,6.02159091 C21.9166536,5.68068182 21.8546271,5.3875947 21.7286801,5.14232955 C21.6027332,4.89706439 21.4265968,4.70861742 21.2002711,4.57698864 C20.9739453,4.44535985 20.7092673,4.37954545 20.406237,4.37954545 C20.0747976,4.37954545 19.7992294,4.45293561 19.5795324,4.59971591 C19.3598354,4.74649621 19.2007445,4.94867424 19.1022597,5.20625 L19.1022597,5.20625 L19.0511233,5.20625 L19.0511233,2.98181818 L17.874987,2.98181818 L17.874987,8.8 L19.0852142,8.8 Z M24.1124761,8.88238636 C24.3283852,8.88238636 24.5187261,8.85350379 24.6834989,8.79573864 C24.8482716,8.73797348 24.9893701,8.65748106 25.1067943,8.55426136 C25.2242186,8.45104167 25.3179686,8.33125 25.3880443,8.19488636 L25.3880443,8.19488636 L25.4221352,8.19488636 L25.4221352,8.8 L26.5698625,8.8 L26.5698625,5.85681818 C26.5698625,5.59734848 26.5196731,5.37433712 26.4192943,5.18778409 C26.3189155,5.00123106 26.1820784,4.84829545 26.008783,4.72897727 C25.8354875,4.60965909 25.6375708,4.52159091 25.415033,4.46477273 C25.1924951,4.40795455 24.960014,4.37954545 24.7175898,4.37954545 C24.3691049,4.37954545 24.0627602,4.43210227 23.7985557,4.53721591 C23.5343511,4.64232955 23.3189155,4.79195076 23.1522489,4.98607955 C22.9855822,5.18020833 22.8738398,5.40984848 22.8170216,5.675 L22.8170216,5.675 L23.9363398,5.76590909 C23.9780064,5.6219697 24.0632337,5.50217803 24.1920216,5.40653409 C24.3208095,5.31089015 24.4941049,5.26306818 24.711908,5.26306818 C24.9183474,5.26306818 25.0779117,5.31231061 25.1906011,5.41079545 C25.3032905,5.5092803 25.3596352,5.64848485 25.3596352,5.82840909 L25.3596352,5.82840909 L25.3596352,5.84545455 C25.3596352,5.93825758 25.3245974,6.00833333 25.2545216,6.05568182 C25.1844458,6.1030303 25.0717564,6.13854167 24.9164534,6.16221591 C24.7611504,6.18589015 24.5566049,6.21098485 24.302817,6.2375 C24.086908,6.25833333 23.880942,6.29431818 23.6849193,6.34545455 C23.4888966,6.39659091 23.3141807,6.47234848 23.1607716,6.57272727 C23.0073625,6.67310606 22.8861504,6.80568182 22.7971352,6.97045455 C22.7081201,7.13522727 22.6636125,7.33882576 22.6636125,7.58125 C22.6636125,7.86912879 22.726586,8.10918561 22.852533,8.30142045 C22.9784799,8.4936553 23.1503549,8.63854167 23.368158,8.73607955 C23.585961,8.83361742 23.834067,8.88238636 24.1124761,8.88238636 Z M24.459067,8.04715909 C24.273461,8.04715909 24.1205254,8.00407197 24.0002602,7.91789773 C23.8799951,7.83172348 23.8198625,7.70625 23.8198625,7.54147727 C23.8198625,7.42784091 23.8492186,7.33267045 23.9079307,7.25596591 C23.9666428,7.17926136 24.0490292,7.11818182 24.1550898,7.07272727 C24.2611504,7.02727273 24.3852034,6.99412879 24.5272489,6.97329545 C24.5935367,6.96382576 24.6674004,6.95293561 24.7488398,6.940625 C24.8302792,6.92831439 24.9117186,6.91410985 24.993158,6.89801136 C25.0745974,6.88191288 25.1479875,6.86392045 25.2133284,6.84403409 C25.2786693,6.82414773 25.3302792,6.80189394 25.368158,6.77727273 L25.368158,6.77727273 L25.368158,7.24034091 C25.368158,7.39375 25.3293322,7.53106061 25.2516807,7.65227273 C25.1740292,7.77348485 25.0670216,7.86960227 24.930658,7.940625 C24.7942943,8.01164773 24.6370974,8.04715909 24.459067,8.04715909 Z" id="Alpha" fill="#0B000E" fill-rule="nonzero"></path>
                </g>
            </g>
        </g>
    </g>
</svg>